<svg xmlns="http://www.w3.org/2000/svg" width="9.726" height="17.989" viewBox="0 0 9.726 17.989"><path d="M31.436,0,29.1,0a4.1,4.1,0,0,0-4.314,4.427V6.468H22.444a.367.367,0,0,0-.367.367V9.793a.367.367,0,0,0,.367.367h2.345v7.463a.367.367,0,0,0,.367.367h3.06a.367.367,0,0,0,.367-.367V10.16h2.742a.367.367,0,0,0,.367-.367V6.835a.367.367,0,0,0-.367-.367H28.583V4.738c0-.832.2-1.254,1.282-1.254h1.571a.367.367,0,0,0,.367-.367V.371A.367.367,0,0,0,31.436,0Z" transform="translate(-22.077)" fill="#39579a"/></svg>