<svg xmlns="http://www.w3.org/2000/svg" width="16.041" height="14.271" viewBox="0 0 16.041 14.271"><path d="M14.769,1.4A4.313,4.313,0,0,0,11.56,0,4.035,4.035,0,0,0,9.04.87,5.157,5.157,0,0,0,8.021,1.934,5.154,5.154,0,0,0,7,.87,4.035,4.035,0,0,0,4.481,0,4.314,4.314,0,0,0,1.273,1.4,5.014,5.014,0,0,0,0,4.821,5.97,5.97,0,0,0,1.591,8.729a33.925,33.925,0,0,0,3.983,3.738c.552.47,1.177,1,1.827,1.571a.942.942,0,0,0,1.24,0c.649-.568,1.275-1.1,1.827-1.572A33.906,33.906,0,0,0,14.45,8.729a5.97,5.97,0,0,0,1.591-3.908A5.013,5.013,0,0,0,14.769,1.4Zm0,0" transform="translate(0)" fill="#7b7b8b"/></svg>