<svg xmlns="http://www.w3.org/2000/svg" width="11.422" height="10.162" viewBox="0 0 11.422 10.162"><path d="M10.517.995A3.072,3.072,0,0,0,8.232,0,2.874,2.874,0,0,0,6.437.62a3.672,3.672,0,0,0-.726.758A3.67,3.67,0,0,0,4.986.62,2.873,2.873,0,0,0,3.191,0,3.072,3.072,0,0,0,.907.995,3.57,3.57,0,0,0,0,3.433,4.252,4.252,0,0,0,1.133,6.216,24.158,24.158,0,0,0,3.969,8.878c.393.335.838.715,1.3,1.119a.671.671,0,0,0,.883,0c.462-.4.908-.784,1.3-1.119A24.144,24.144,0,0,0,10.29,6.216a4.251,4.251,0,0,0,1.133-2.783A3.57,3.57,0,0,0,10.517.995Zm0,0" transform="translate(0)" fill="#7b7b8b"/></svg>