<svg xmlns="http://www.w3.org/2000/svg" width="11.147" height="9.917" viewBox="0 0 11.147 9.917"><path d="M10.263.97A3,3,0,0,0,8.033,0,2.8,2.8,0,0,0,6.282.6a3.583,3.583,0,0,0-.708.739A3.581,3.581,0,0,0,4.866.6,2.8,2.8,0,0,0,3.114,0,3,3,0,0,0,.885.97,3.484,3.484,0,0,0,0,3.35,4.149,4.149,0,0,0,1.106,6.066a23.574,23.574,0,0,0,2.767,2.6c.383.327.818.7,1.269,1.092a.654.654,0,0,0,.862,0c.451-.395.886-.765,1.27-1.092a23.561,23.561,0,0,0,2.767-2.6A4.148,4.148,0,0,0,11.147,3.35,3.484,3.484,0,0,0,10.263.97Zm0,0" transform="translate(0 0)" fill="#fb6580"/></svg>