<svg xmlns="http://www.w3.org/2000/svg" width="24.002" height="24.007" viewBox="0 0 24.002 24.007"><path d="M1.5,9.681a1.5,1.5,0,0,0-1.5,1.5v1.63a1.5,1.5,0,0,0,3,0v-1.63A1.5,1.5,0,0,0,1.5,9.681Zm21,0a1.5,1.5,0,0,0-1.5,1.5v1.63a1.5,1.5,0,0,0,3,0v-1.63A1.5,1.5,0,0,0,22.5,9.681ZM6.681,14.591a1.5,1.5,0,0,0-1.5,1.5v1.63a1.5,1.5,0,0,0,3,0V16.1a1.5,1.5,0,0,0-1.5-1.5Zm0-9.821a1.5,1.5,0,0,0-1.5,1.5v5.361a1.5,1.5,0,0,0,3,0V6.261a1.5,1.5,0,0,0-1.5-1.5Zm10.641,0a1.5,1.5,0,0,0-1.5,1.5v1.64a1.5,1.5,0,0,0,3,0V6.271A1.5,1.5,0,0,0,17.322,4.77ZM12,0a1.5,1.5,0,0,0-1.5,1.5V3.13a1.5,1.5,0,1,0,3,0V1.5A1.5,1.5,0,0,0,12,0Zm0,19.362a1.5,1.5,0,0,0-1.5,1.5V22.5a1.5,1.5,0,0,0,3,.01v-1.64a1.5,1.5,0,0,0-1.5-1.5ZM17.322,10.9a1.5,1.5,0,0,0-1.5,1.5v5.331a1.5,1.5,0,1,0,3,0V12.4A1.5,1.5,0,0,0,17.322,10.9ZM12,6.131a1.5,1.5,0,0,0-1.5,1.5v8.731a1.5,1.5,0,0,0,3,0V7.641a1.5,1.5,0,0,0-1.5-1.5Z" fill="#5c5e6f"/></svg>