<svg xmlns="http://www.w3.org/2000/svg" width="22.807" height="25.007" viewBox="0 0 22.807 25.007"><path d="M3032.2-5308.993a3.2,3.2,0,0,1-3.2-3.2V-5327.6a3.2,3.2,0,0,1,3.2-3.2h2.3v-1.2a1,1,0,0,1,1-1,1,1,0,0,1,1,1v1.2h6.8v-1.2a1,1,0,0,1,1-1,1,1,0,0,1,1,1v1.2h2.3a3.2,3.2,0,0,1,3.2,3.2v4.35c0,.017,0,.034,0,.052s0,.035,0,.052v10.952a3.2,3.2,0,0,1-3.2,3.2Zm-1.2-3.2a1.2,1.2,0,0,0,1.2,1.2h15.405a1.2,1.2,0,0,0,1.2-1.2v-10H3031Zm17.806-12v-3.4a1.2,1.2,0,0,0-1.2-1.2h-2.3v1.2a1,1,0,0,1-1,1,1,1,0,0,1-1-1v-1.2h-6.8v1.2a1,1,0,0,1-1,1,1,1,0,0,1-1-1v-1.2h-2.3a1.2,1.2,0,0,0-1.2,1.2v3.4Z" transform="translate(-3028.5 5333.5)" fill="#5c5e6f" stroke="rgba(0,0,0,0)" stroke-miterlimit="10" stroke-width="1"/></svg>