<svg xmlns="http://www.w3.org/2000/svg" width="20.672" height="23.521" viewBox="0 0 20.672 23.521"><path d="M2976.827-6058.929l-.363-.975h-6.252l-.362.975a.69.69,0,0,1-.887.406.689.689,0,0,1-.406-.886c.621-1.669,3.085-8.3,3.868-10.4a2.069,2.069,0,0,1-1.154-1.853,2.069,2.069,0,0,1,2.067-2.068,2.071,2.071,0,0,1,2.068,2.068,2.068,2.068,0,0,1-1.156,1.853l3.868,10.4a.689.689,0,0,1-.406.886.689.689,0,0,1-.24.043A.69.69,0,0,1,2976.827-6058.929Zm-6.1-2.354h5.226l-.511-1.377h-4.2Zm1.026-2.755h3.177l-.513-1.378h-2.152Zm1.024-2.756h1.126l-.563-1.514Zm-.125-4.869a.688.688,0,0,0,.688.688.69.69,0,0,0,.69-.688.691.691,0,0,0-.69-.69A.69.69,0,0,0,2972.649-6071.663Zm9.647,0a8.969,8.969,0,0,0-8.958-8.958,8.969,8.969,0,0,0-8.958,8.958.688.688,0,0,1-.688.688.688.688,0,0,1-.688-.688A10.347,10.347,0,0,1,2973.338-6082a10.349,10.349,0,0,1,10.337,10.337.688.688,0,0,1-.688.688A.689.689,0,0,1,2982.3-6071.663Zm-2.757,0a6.207,6.207,0,0,0-6.2-6.2,6.208,6.208,0,0,0-6.2,6.2.688.688,0,0,1-.688.688.69.69,0,0,1-.69-.688,7.589,7.589,0,0,1,7.58-7.58,7.588,7.588,0,0,1,7.58,7.58.688.688,0,0,1-.688.688A.689.689,0,0,1,2979.54-6071.663Zm-2.755,0a3.451,3.451,0,0,0-3.447-3.447,3.45,3.45,0,0,0-3.445,3.447.688.688,0,0,1-.688.688.689.689,0,0,1-.69-.688,4.829,4.829,0,0,1,4.823-4.824,4.828,4.828,0,0,1,4.823,4.824.688.688,0,0,1-.688.688A.688.688,0,0,1,2976.784-6071.663Z" transform="translate(-2963.003 6082)" fill="#5c5e6f"/></svg>