<svg xmlns="http://www.w3.org/2000/svg" width="22.599" height="16.131" viewBox="0 0 22.599 16.131">
  <g id="Icon_ionic-ios-wifi" data-name="Icon ionic-ios-wifi" transform="translate(-2.246 -6.75)">
    <path id="Path_3156" data-name="Path 3156" d="M13.541,6.75A16.664,16.664,0,0,0,2.375,11.2a.4.4,0,0,0-.015.575l1.346,1.406a.414.414,0,0,0,.585.015,13.542,13.542,0,0,1,9.255-3.614A13.542,13.542,0,0,1,22.8,13.2a.414.414,0,0,0,.585-.015l1.346-1.406a.4.4,0,0,0-.015-.575A16.709,16.709,0,0,0,13.541,6.75Z" fill="#fff"/>
    <path id="Path_3157" data-name="Path 3157" d="M7.911,18.192l1.442,1.427a.413.413,0,0,0,.565.015,7.841,7.841,0,0,1,10.374,0,.413.413,0,0,0,.565-.015L22.3,18.192a.4.4,0,0,0-.015-.59,10.75,10.75,0,0,0-14.367,0A.411.411,0,0,0,7.911,18.192Z" transform="translate(-1.569 -2.293)" fill="#fff"/>
    <path id="Path_3158" data-name="Path 3158" d="M16.774,22.8a4.107,4.107,0,0,0-2.994,1.285.4.4,0,0,0,.01.565L16.482,27.3a.414.414,0,0,0,.585,0l2.692-2.657a.4.4,0,0,0,.01-.565A4.127,4.127,0,0,0,16.774,22.8Z" transform="translate(-3.234 -4.542)" fill="#fff"/>
  </g>
</svg>
