<svg xmlns="http://www.w3.org/2000/svg" width="12.235" height="16.058" viewBox="0 0 12.235 16.058"><path d="M12.118,13.735a1.529,1.529,0,1,0-1.529-1.529A1.534,1.534,0,0,0,12.118,13.735Zm4.588-6.882h-.765V5.323a3.823,3.823,0,0,0-7.647,0V6.853H7.529A1.534,1.534,0,0,0,6,8.382v7.647a1.534,1.534,0,0,0,1.529,1.529h9.176a1.534,1.534,0,0,0,1.529-1.529V8.382A1.534,1.534,0,0,0,16.706,6.853ZM9.747,5.323a2.371,2.371,0,1,1,4.741,0V6.853H9.747Zm6.959,10.706H7.529V8.382h9.176Z" transform="translate(-6 -1.5)" fill="#7477a0"/></svg>