<svg xmlns="http://www.w3.org/2000/svg" width="15.943" height="11.623" viewBox="0 0 15.943 11.623"><g transform="translate(0.5 -3.982)"><path d="M21.869,18.195a.239.239,0,0,1-.165-.066l-2.773-2.6a.241.241,0,1,1,.33-.351l2.773,2.6a.241.241,0,0,1-.165.416Z" transform="translate(-9.77 -5.508)" fill="#9fa4b7" stroke="#7477a0" stroke-width="1"/><path d="M5.643,18.2a.241.241,0,0,1-.165-.416l2.773-2.6a.241.241,0,1,1,.33.351l-2.773,2.6A.239.239,0,0,1,5.643,18.2Z" transform="translate(-2.799 -5.508)" fill="#9fa4b7" stroke="#7477a0" stroke-width="1"/><path d="M13.738,15.105H1.2A1.206,1.206,0,0,1,0,13.9V5.687a1.206,1.206,0,0,1,1.2-1.2H13.738a1.206,1.206,0,0,1,1.2,1.2V13.9A1.206,1.206,0,0,1,13.738,15.105ZM1.2,4.964a.724.724,0,0,0-.723.723V13.9a.724.724,0,0,0,.723.723H13.738a.724.724,0,0,0,.723-.723V5.687a.724.724,0,0,0-.723-.723Z" fill="#9fa4b7" stroke="#7477a0" stroke-width="1"/><path d="M7.813,11.417a1.347,1.347,0,0,1-.885-.319L.741,5.7a.241.241,0,1,1,.317-.363l6.187,5.4a.9.9,0,0,0,1.136,0l6.179-5.388a.241.241,0,0,1,.317.363L8.7,11.1A1.346,1.346,0,0,1,7.813,11.417Z" transform="translate(-0.341 -0.413)" fill="#9fa4b7" stroke="#7477a0" stroke-width="1"/></g></svg>