<svg xmlns="http://www.w3.org/2000/svg" width="379" height="86.1" viewBox="0 0 379 86.1">
  <g id="Meter" transform="translate(4 -465)">
    <g id="Lines">
      <path id="Path_1373" data-name="Path 1373" d="M6715,640.749v38.024" transform="translate(-6711.25 -148.267)" fill="none" stroke="#7b7b8b" stroke-linecap="round" stroke-width="1.5"/>
      <path id="Path_1374" data-name="Path 1374" d="M6715,640.749v38.024" transform="translate(-6697.25 -148.267)" fill="none" stroke="#7b7b8b" stroke-linecap="round" stroke-width="1.5"/>
      <path id="Path_1375" data-name="Path 1375" d="M6715,640.749v38.024" transform="translate(-6683.25 -148.267)" fill="none" stroke="#7b7b8b" stroke-linecap="round" stroke-width="1.5"/>
      <path id="Path_1376" data-name="Path 1376" d="M6715,640.749v38.024" transform="translate(-6669.25 -148.267)" fill="none" stroke="#7b7b8b" stroke-linecap="round" stroke-width="1.5"/>
      <path id="Path_1377" data-name="Path 1377" d="M6715,640.749v60.781" transform="translate(-6655.25 -158.379)" fill="none" stroke="#7b7b8b" stroke-linecap="round" stroke-width="1.5"/>
      <path id="Path_1373-2" data-name="Path 1373" d="M6715,640.749v38.024" transform="translate(-6641.5 -148.267)" fill="none" stroke="#7b7b8b" stroke-linecap="round" stroke-width="1.5"/>
      <path id="Path_1374-2" data-name="Path 1374" d="M6715,640.749v38.024" transform="translate(-6624.5 -148.267)" fill="none" stroke="#7b7b8b" stroke-linecap="round" stroke-width="1.5"/>
      <path id="Path_1375-2" data-name="Path 1375" d="M6715,640.749v38.024" transform="translate(-6607.5 -148.267)" fill="none" stroke="#7b7b8b" stroke-linecap="round" stroke-width="1.5"/>
      <path id="Path_1376-2" data-name="Path 1376" d="M6715,640.749v38.024" transform="translate(-6591.5 -148.267)" fill="none" stroke="#7b7b8b" stroke-linecap="round" stroke-width="1.5"/>
      <path id="Path_1377-2" data-name="Path 1377" d="M6715,640.749v60.781" transform="translate(-6577.25 -158.379)" fill="none" stroke="#7b7b8b" stroke-linecap="round" stroke-width="1.5"/>
      <path id="Path_1373-3" data-name="Path 1373" d="M6715,640.749v38.024" transform="translate(-6563.5 -148.267)" fill="none" stroke="#7b7b8b" stroke-linecap="round" stroke-width="1.5"/>
      <path id="Path_1374-3" data-name="Path 1374" d="M6715,640.749v38.024" transform="translate(-6546.5 -148.267)" fill="none" stroke="#7b7b8b" stroke-linecap="round" stroke-width="1.5"/>
      <path id="Path_1375-3" data-name="Path 1375" d="M6715,640.749v38.024" transform="translate(-6529.5 -148.267)" fill="none" stroke="#7b7b8b" stroke-linecap="round" stroke-width="1.5"/>
      <path id="Path_1376-3" data-name="Path 1376" d="M6715,640.749v38.024" transform="translate(-6513.5 -148.267)" fill="none" stroke="#7b7b8b" stroke-linecap="round" stroke-width="1.5"/>
      <path id="Path_1377-3" data-name="Path 1377" d="M6715,640.749v60.781" transform="translate(-6499.25 -158.379)" fill="none" stroke="#7b7b8b" stroke-linecap="round" stroke-width="1.5"/>
      <path id="Path_1373-4" data-name="Path 1373" d="M6715,640.749v38.024" transform="translate(-6485.5 -148.267)" fill="none" stroke="#7b7b8b" stroke-linecap="round" stroke-width="1.5"/>
      <path id="Path_1374-4" data-name="Path 1374" d="M6715,640.749v38.024" transform="translate(-6468.5 -148.267)" fill="none" stroke="#7b7b8b" stroke-linecap="round" stroke-width="1.5"/>
      <path id="Path_1375-4" data-name="Path 1375" d="M6715,640.749v38.024" transform="translate(-6451.5 -148.267)" fill="none" stroke="#7b7b8b" stroke-linecap="round" stroke-width="1.5"/>
      <path id="Path_1376-4" data-name="Path 1376" d="M6715,640.749v38.024" transform="translate(-6435.5 -148.267)" fill="none" stroke="#7b7b8b" stroke-linecap="round" stroke-width="1.5"/>
      <path id="Path_1377-4" data-name="Path 1377" d="M6715,640.749v60.781" transform="translate(-6421.25 -158.379)" fill="none" stroke="#7b7b8b" stroke-linecap="round" stroke-width="1.5"/>
      <path id="Path_1373-5" data-name="Path 1373" d="M6715,640.749v38.024" transform="translate(-6404.5 -148.267)" fill="none" stroke="#7b7b8b" stroke-linecap="round" stroke-width="1.5"/>
      <path id="Path_1374-5" data-name="Path 1374" d="M6715,640.749v38.024" transform="translate(-6388.5 -148.267)" fill="none" stroke="#7b7b8b" stroke-linecap="round" stroke-width="1.5"/>
      <path id="Path_1375-5" data-name="Path 1375" d="M6715,640.749v38.024" transform="translate(-6372.5 -148.267)" fill="none" stroke="#7b7b8b" stroke-linecap="round" stroke-width="1.5"/>
      <path id="Path_1376-5" data-name="Path 1376" d="M6715,640.749v38.024" transform="translate(-6357.5 -148.267)" fill="none" stroke="#7b7b8b" stroke-linecap="round" stroke-width="1.5"/>
      <path id="Path_1377-5" data-name="Path 1377" d="M6715,640.749v60.781" transform="translate(-6343.25 -158.379)" fill="none" stroke="#7b7b8b" stroke-linecap="round" stroke-width="1.5"/>
    </g>
    <path id="Indicator" d="M6715,640.749v82.115" transform="translate(-6513.841 -172.513)" fill="none" stroke="#fb6580" stroke-linecap="round" stroke-width="1.5"/>
    <text id="_88" data-name="88" transform="translate(-4 473)" fill="#7b7b8b" font-size="9" font-family="AgencyFB-Reg, Agency FB"><tspan x="0" y="0">88</tspan></text>
    <text id="_90" data-name="90" transform="translate(56 473)" fill="#7b7b8b" font-size="9" font-family="AgencyFB-Reg, Agency FB"><tspan x="0" y="0">90</tspan></text>
    <text id="_92" data-name="92" transform="translate(133 473)" fill="#7b7b8b" font-size="9" font-family="AgencyFB-Reg, Agency FB"><tspan x="0" y="0">92</tspan></text>
    <text id="_94" data-name="94" transform="translate(212 473)" fill="#7b7b8b" font-size="9" font-family="AgencyFB-Reg, Agency FB"><tspan x="0" y="0">94</tspan></text>
    <text id="_96" data-name="96" transform="translate(290 473)" fill="#7b7b8b" font-size="9" font-family="AgencyFB-Reg, Agency FB"><tspan x="0" y="0">96</tspan></text>
    <text id="_98" data-name="98" transform="translate(367 473)" fill="#7b7b8b" font-size="9" font-family="AgencyFB-Reg, Agency FB"><tspan x="0" y="0">98</tspan></text>
  </g>
</svg>
