<svg xmlns="http://www.w3.org/2000/svg" xmlns:xlink="http://www.w3.org/1999/xlink" width="248.471" height="155.521" viewBox="0 0 248.471 155.521"><defs><filter id="a" x="0" y="0" width="248.471" height="155.521" filterUnits="userSpaceOnUse"><feOffset dy="3" input="SourceAlpha"/><feGaussianBlur stdDeviation="3" result="b"/><feFlood flood-opacity="0.349"/><feComposite operator="in" in2="b"/><feComposite in="SourceGraphic"/></filter></defs><g transform="matrix(1, 0, 0, 1, 0, 0)" filter="url(#a)"><path d="M3538.592-5211.389a1.757,1.757,0,0,1-.117-2.425,2.058,2.058,0,0,1,1.663-.979l-.024-.039h0l-4.865-7.786a.261.261,0,0,1,.083-.361.261.261,0,0,1,.361.083l.01.016c.259.239.569.42,1.765.434h.229c.979,0,2.8-.007,3.122,1.6a.261.261,0,0,1-.205.307.261.261,0,0,1-.307-.206c-.22-1.094-1.409-1.182-2.606-1.181h-.238a5.919,5.919,0,0,1-1.233-.115l2.2,3.522h0l2.6,4.159a1.918,1.918,0,0,1-.142,2.176,2.085,2.085,0,0,1-1.633.987A1.167,1.167,0,0,1,3538.592-5211.389Zm139.882-1.062c-2.369-.13-4.215-1.672-4.119-3.454s2.1-3.112,4.469-2.985a4.81,4.81,0,0,1,3.459,1.589l7.635-14.987-16.2-3.907-8.644,16.966a2.742,2.742,0,0,1-.366.717l-.033.067-.015-.008a4.572,4.572,0,0,1-3.935,1.6c-2.37-.134-4.216-1.671-4.119-3.452s2.1-3.114,4.467-2.989a4.831,4.831,0,0,1,3.44,1.572l7.574-14.866h-.011l2.306-4.526,19.393,4.881-2.215,4.345h-.013l-8.815,17.3-.011-.007a4.177,4.177,0,0,1-3.942,2.154C3678.679-5212.442,3678.577-5212.445,3678.474-5212.45Zm-192.239-4.129a2.2,2.2,0,0,1-.207-.1,1.562,1.562,0,0,1-.781-.617.072.072,0,0,0-.014-.016l0,0a1.752,1.752,0,0,1-.106-.177,1.58,1.58,0,0,1,.745-2.107,1.585,1.585,0,0,1,2.111.748,1.583,1.583,0,0,1-.756,2.107,1.143,1.143,0,0,1-.174.064,2.311,2.311,0,0,0,2.083-.87c.777-1.051.6-2.859-.664-4.322-.416-.583-.879-1.192-1.36-1.817a10.65,10.65,0,0,1-4.334,1.443,7.332,7.332,0,0,1-4.935-1.236,6.87,6.87,0,0,1-2.729-4.657,12.757,12.757,0,0,1,.368-5.3c.115-.445.235-.865.365-1.237l.381-1.142a16.721,16.721,0,0,0,.509-1.909c-3-4.558-5.74-9.038-3.22-10.843,1.187-.754,3.906.771,5.873,5.838a9.534,9.534,0,0,1,.321,5.336,13.557,13.557,0,0,1-.584,2.154c.339.49.68.973,1.027,1.441.183.249.363.487.544.731a5.551,5.551,0,0,1,1.173-1.5,5.415,5.415,0,0,1,3.393-1.4,5.532,5.532,0,0,1,3.77,1.316,6.2,6.2,0,0,1,2.153,3.541,5.909,5.909,0,0,1-.742,4.221,10.07,10.07,0,0,1-2.717,2.808c.47.609.922,1.209,1.339,1.786a12.414,12.414,0,0,1,.819,1.267,3.679,3.679,0,0,1,.4,1.391,2.937,2.937,0,0,1-.791,2.4,3.09,3.09,0,0,1-1.807.871,3.08,3.08,0,0,1-.317.016A2.9,2.9,0,0,1,3486.235-5216.579Zm-7.5-17.639-.224.53c-.173.388-.306.737-.421,1.064a11.585,11.585,0,0,0-.788,4.237,4.855,4.855,0,0,0,1.605,3.531,5.952,5.952,0,0,0,3.82,1.3,8.364,8.364,0,0,0,3.814-.88c-.668-.86-1.376-1.764-2.1-2.718-.938-1.224-1.927-2.521-2.942-3.877a4.641,4.641,0,0,0-.232,1.659,5.885,5.885,0,0,0,.958,2.9,9.228,9.228,0,0,0,.691.942s-.087-.051-.259-.156a5.6,5.6,0,0,1-.718-.533,5.6,5.6,0,0,1-1.812-3,5.6,5.6,0,0,1,.292-3.269c-.238-.326-.476-.647-.717-.979q-.4-.564-.805-1.136C3478.844-5234.473,3478.789-5234.345,3478.733-5234.218Zm4.276.979a4.535,4.535,0,0,0-1.252,1.573c1.1,1.443,2.184,2.813,3.216,4.094.777.966,1.519,1.894,2.216,2.787a7.924,7.924,0,0,0,2.629-2.484,4.223,4.223,0,0,0,.51-3.613,4.826,4.826,0,0,0-2.151-2.561,4.874,4.874,0,0,0-2.491-.7A4.31,4.31,0,0,0,3483.009-5233.239Zm-7.972-13.861c-1.283.211-.9,3.706,1.864,8.385a33.674,33.674,0,0,0,.289-3.6,7.986,7.986,0,0,0-.824-3.7c-.223-.45-.633-1.1-1.2-1.1A.785.785,0,0,0,3475.036-5247.1Zm10.2,29.788h0S3485.232-5217.313,3485.233-5217.312Zm123.854-5.282c-.765-.042-1.36-.54-1.329-1.114a1.254,1.254,0,0,1,1.44-.962,1.551,1.551,0,0,1,1.115.513l2.463-4.831-5.222-1.26-2.788,5.469a.869.869,0,0,1-.118.231l-.011.021h0a1.472,1.472,0,0,1-1.27.514c-.764-.043-1.358-.538-1.327-1.111a1.253,1.253,0,0,1,1.44-.965,1.559,1.559,0,0,1,1.109.507l2.441-4.793h0l.743-1.459,6.252,1.573-.714,1.4h0l-2.842,5.578h0a1.349,1.349,0,0,1-1.271.694Zm-47.545-14.764c-2.013-1.584-1.942-5.053.168-7.75a6.58,6.58,0,0,1,5.518-2.747l-.069-.132-.008,0-13.763-25.884a.837.837,0,0,1,.346-1.131.836.836,0,0,1,1.13.346l.03.055c.772.817,1.717,1.466,5.524,1.771l.733.054c3.117.209,8.915.6,9.587,5.8a.835.835,0,0,1-.725.934.835.835,0,0,1-.934-.722c-.456-3.535-4.224-4.083-8.041-4.342l-.753-.053a18.71,18.71,0,0,1-3.9-.64l6.226,11.71.008,0,7.351,13.827c1.176,1.777.855,4.609-.936,6.9a6.809,6.809,0,0,1-5.111,2.792A3.8,3.8,0,0,1,3561.542-5237.358Zm61.418-15.873a3.643,3.643,0,0,1-2.2-.9,3.508,3.508,0,0,1-.966-1.448c-.031-.091-.052-.176-.074-.262a1.863,1.863,0,0,1-.075-1.174.205.205,0,0,0,0-.024h0a1.964,1.964,0,0,1,.073-.235,1.869,1.869,0,0,1,2.44-1.012,1.875,1.875,0,0,1,1.013,2.448,1.872,1.872,0,0,1-2.449,1,1.4,1.4,0,0,1-.193-.1,2.737,2.737,0,0,0,2.412,1.144c1.539-.15,2.99-1.733,3.272-4.005.184-.827.353-1.717.521-2.633a12.6,12.6,0,0,1-4.7-2.667,8.668,8.668,0,0,1-2.819-5.315,8.124,8.124,0,0,1,1.934-6.084,15.077,15.077,0,0,1,4.95-3.872c.485-.252.949-.479,1.377-.659l1.3-.568a19.92,19.92,0,0,0,2.08-1.064c1.632-6.246,3.4-12.2,6.982-11.411,1.6.446,2.413,4.044-.483,9.783a11.253,11.253,0,0,1-4.436,4.5,15.732,15.732,0,0,1-2.355,1.193c-.161.685-.315,1.368-.454,2.042-.074.357-.141.7-.212,1.056a6.6,6.6,0,0,1,2.243-.153,6.407,6.407,0,0,1,3.917,1.874,6.549,6.549,0,0,1,1.827,4.355,7.338,7.338,0,0,1-1.408,4.695,7.006,7.006,0,0,1-4.3,2.687,11.893,11.893,0,0,1-4.618-.165c-.164.9-.332,1.768-.509,2.592a15.1,15.1,0,0,1-.466,1.721,4.352,4.352,0,0,1-.909,1.451,3.506,3.506,0,0,1-2.553,1.21Q3623.05-5253.225,3622.96-5253.231Zm6.557-18.222c-.4,2.109-.746,4.146-1.055,6.067-.234,1.448-.462,2.834-.694,4.153a9.4,9.4,0,0,0,4.263.345,5,5,0,0,0,3.58-2.412,5.7,5.7,0,0,0,.548-3.917,5.372,5.372,0,0,0-4.268-4.38,5.125,5.125,0,0,0-.855-.071A5.573,5.573,0,0,0,3629.517-5271.453Zm-.15-4.676-.646.223c-.478.154-.889.314-1.269.47a13.763,13.763,0,0,0-4.349,2.662,5.758,5.758,0,0,0-1.833,4.205,7.053,7.053,0,0,0,1.884,4.385,9.918,9.918,0,0,0,3.793,2.656c.227-1.271.46-2.605.728-4,.334-1.793.691-3.69,1.082-5.655a5.476,5.476,0,0,0-1.643,1.11,6.936,6.936,0,0,0-1.792,3.138,10.609,10.609,0,0,0-.282,1.354s-.025-.117-.068-.352a6.464,6.464,0,0,1-.1-1.052,6.612,6.612,0,0,1,1.2-3.969,6.618,6.618,0,0,1,3.1-2.327c.1-.47.192-.933.294-1.408.121-.529.24-1.067.36-1.606C3629.678-5276.233,3629.522-5276.181,3629.366-5276.128Zm2.5-5.169a40.034,40.034,0,0,0,3.388-2.593,9.423,9.423,0,0,0,2.6-3.65c.236-.591.5-1.554-.093-2.031a.773.773,0,0,0-.5-.172C3635.908-5289.744,3633.562-5286.694,3631.868-5281.3Zm-134.611,21.946c-.667-2.207,1.173-4.72,4.113-5.617a6.255,6.255,0,0,1,4.881.389l2.633-21.449-.013,0,.8-6.527,25.766-2.652-.771,6.27-.016,0-3.064,24.96h-.016c-.1,1.878-1.769,3.746-4.22,4.494-2.943.891-5.871-.167-6.543-2.377s1.172-4.719,4.116-5.614a6.224,6.224,0,0,1,4.914.4l2.655-21.623-21.447,2.42-3.007,24.479a3.487,3.487,0,0,1-.126,1.035l-.012.1-.02,0a5.93,5.93,0,0,1-4.082,3.688,7.241,7.241,0,0,1-2.087.314C3499.58-5256.66,3497.767-5257.673,3497.257-5259.352Zm122.393,2.314s0,0,0,0Zm-145.672-21.418c-2.449-.221-4.3-1.887-4.14-3.726s2.286-3.147,4.735-2.932a4.724,4.724,0,0,1,3.813,2.25l.052-.094-.005,0,10.208-18.416a.6.6,0,0,1,.816-.235.6.6,0,0,1,.235.817l-.023.039c-.189.784-.211,1.608,1.1,4.021l.254.462c1.093,1.959,3.125,5.606.26,8.043a.6.6,0,0,1-.847-.071.6.6,0,0,1,.068-.846c1.952-1.658.808-4.142-.529-6.543l-.263-.474a13.361,13.361,0,0,1-1.142-2.6l-4.618,8.333.005,0-5.453,9.838a4.24,4.24,0,0,1-4,2.159Q3474.245-5278.433,3473.979-5278.456Zm193.4-9.721c-.811-.638-.781-2.031.066-3.114a2.8,2.8,0,0,1,1.89-1.111l-4.541-8.539,0,0-1.383-2.6,8.766-7.586,1.326,2.5-.005.007,5.284,9.938-.005,0a2.472,2.472,0,0,1-.395,2.73c-.85,1.083-2.194,1.447-3.009.809s-.78-2.031.068-3.115a2.787,2.787,0,0,1,1.9-1.114l-4.577-8.609-7.241,6.393,5.182,9.745a1.609,1.609,0,0,1,.219.412l.02.039-.008,0a2.651,2.651,0,0,1-.55,2.4,2.741,2.741,0,0,1-2.054,1.122A1.522,1.522,0,0,1,3667.382-5288.177Zm-91.177-7.228a1.756,1.756,0,0,1,1.187-2.12,2.061,2.061,0,0,1,1.929.053v-.046h0v-9.182a.263.263,0,0,1,.263-.262.263.263,0,0,1,.262.262v.02c.093.339.259.658,1.267,1.3l.193.122c.831.517,2.377,1.478,1.8,3.012a.263.263,0,0,1-.338.153.262.262,0,0,1-.152-.337c.393-1.045-.568-1.75-1.585-2.384l-.2-.125a5.787,5.787,0,0,1-.985-.75v4.153h0v4.9a1.916,1.916,0,0,1-1.272,1.771,2.438,2.438,0,0,1-.983.215A1.441,1.441,0,0,1,3576.206-5295.4Zm-104.073-6.511c-.042-.017-.076-.035-.113-.054a.852.852,0,0,1-.43-.326l-.006-.008h0c-.02-.031-.042-.062-.059-.1a.856.856,0,0,1,.384-1.147.858.858,0,0,1,1.15.385.858.858,0,0,1-.389,1.147.687.687,0,0,1-.094.036,1.252,1.252,0,0,0,1.119-.49,1.941,1.941,0,0,0-.4-2.334c-.231-.312-.487-.638-.754-.971a5.758,5.758,0,0,1-2.333.822,3.97,3.97,0,0,1-2.683-.623,3.714,3.714,0,0,1-1.521-2.5,6.9,6.9,0,0,1,.148-2.874c.059-.243.119-.471.187-.674l.2-.622a9.079,9.079,0,0,0,.256-1.039c-1.668-2.44-3.192-4.838-1.846-5.84.636-.42,2.122.38,3.236,3.106a5.151,5.151,0,0,1,.223,2.884,7.206,7.206,0,0,1-.294,1.173c.188.262.377.52.569.771.1.133.2.26.3.391a3.021,3.021,0,0,1,.621-.821,2.928,2.928,0,0,1,1.824-.791,2.991,2.991,0,0,1,2.052.678,3.345,3.345,0,0,1,1.2,1.9,3.2,3.2,0,0,1-.362,2.291,5.465,5.465,0,0,1-1.444,1.547c.26.325.511.645.742.955a6.69,6.69,0,0,1,.455.678,2,2,0,0,1,.229.75,1.593,1.593,0,0,1-.405,1.306,1.669,1.669,0,0,1-.97.488,1.654,1.654,0,0,1-.2.012A1.571,1.571,0,0,1,3472.133-5301.916Zm-4.228-9.479-.117.29c-.09.212-.158.4-.219.58a6.313,6.313,0,0,0-.387,2.3,2.639,2.639,0,0,0,.9,1.9,3.224,3.224,0,0,0,2.082.666,4.522,4.522,0,0,0,2.056-.513c-.371-.46-.761-.94-1.161-1.451-.519-.655-1.067-1.348-1.629-2.072a2.517,2.517,0,0,0-.11.9,3.2,3.2,0,0,0,.546,1.563,4.977,4.977,0,0,0,.384.5s-.048-.027-.142-.082a2.789,2.789,0,0,1-.393-.282,3.028,3.028,0,0,1-1.011-1.608,3.031,3.031,0,0,1,.129-1.772l-.4-.523c-.146-.2-.3-.4-.447-.608C3467.963-5311.535,3467.933-5311.465,3467.905-5311.4Zm2.323.49a2.441,2.441,0,0,0-.662.863c.608.772,1.208,1.5,1.778,2.187.431.516.842,1.011,1.227,1.487a4.3,4.3,0,0,0,1.4-1.369,2.285,2.285,0,0,0,.242-1.961,2.606,2.606,0,0,0-1.189-1.366,2.638,2.638,0,0,0-1.311-.359A2.345,2.345,0,0,0,3470.229-5310.906Zm-4.447-7.429c-.693.126-.452,2.014,1.088,4.521a18.3,18.3,0,0,0,.122-1.949,4.312,4.312,0,0,0-.48-1.995c-.125-.24-.35-.585-.656-.585A.386.386,0,0,0,3465.782-5318.334Zm5.8,16.03h0S3471.584-5302.3,3471.584-5302.3Zm41.827-11.7a1.758,1.758,0,0,1-1.169-2.128,2.062,2.062,0,0,1,1.067-1.608l-.039-.024h0l-7.786-4.866a.262.262,0,0,1-.083-.361.263.263,0,0,1,.361-.083l.016.009c.337.1.7.13,1.776-.384l.207-.1c.878-.431,2.513-1.233,3.507.071a.26.26,0,0,1-.048.365.261.261,0,0,1-.368-.05c-.678-.886-1.785-.444-2.86.082l-.212.1a5.962,5.962,0,0,1-1.159.438l3.522,2.2h0l4.159,2.6a1.919,1.919,0,0,1,.825,2.018,1.823,1.823,0,0,1-1.558,1.729A1.137,1.137,0,0,1,3513.412-5314Zm95.672-.315a2.825,2.825,0,0,1-1.27-.6,2.174,2.174,0,0,1-.16-.15,1.5,1.5,0,0,1-.541-.781l-.008-.018h0a1.865,1.865,0,0,1-.048-.193,1.507,1.507,0,0,1,1.267-1.714,1.511,1.511,0,0,1,1.718,1.271,1.511,1.511,0,0,1-1.277,1.713,1.13,1.13,0,0,1-.177.009,2.2,2.2,0,0,0,2.143-.212c1-.742,1.349-2.44.6-4.129-.216-.648-.468-1.333-.734-2.038a10.127,10.127,0,0,1-4.357.107,6.991,6.991,0,0,1-4.158-2.5,6.556,6.556,0,0,1-1.191-5.011,12.148,12.148,0,0,1,1.815-4.736c.229-.375.456-.726.678-1.027l.667-.936a16.226,16.226,0,0,0,1-1.6c-1.467-5-2.715-9.849.087-10.794,1.294-.358,3.349,1.794,3.731,6.967a9.08,9.08,0,0,1-1.2,4.958,12.934,12.934,0,0,1-1.133,1.805c.173.541.349,1.077.534,1.6.1.278.195.546.291.82a5.284,5.284,0,0,1,1.489-1.039,5.167,5.167,0,0,1,3.487-.332,5.279,5.279,0,0,1,3.074,2.253,5.914,5.914,0,0,1,.977,3.832,5.652,5.652,0,0,1-1.855,3.644,9.606,9.606,0,0,1-3.264,1.805c.259.687.506,1.359.726,2a12.528,12.528,0,0,1,.393,1.384,3.533,3.533,0,0,1-.025,1.381,2.8,2.8,0,0,1-1.391,1.969,2.9,2.9,0,0,1-1.364.336A3.111,3.111,0,0,1,3609.083-5314.32Zm-3.193-18.791-.354.423c-.266.3-.485.586-.682.853a11.1,11.1,0,0,0-1.9,3.648,4.641,4.641,0,0,0,.478,3.669,5.7,5.7,0,0,0,3.126,2.25,7.98,7.98,0,0,0,3.727.26c-.37-.972-.765-1.992-1.157-3.065-.514-1.378-1.055-2.839-1.6-4.359a4.434,4.434,0,0,0-.675,1.45,5.606,5.606,0,0,0,.066,2.915,8.439,8.439,0,0,0,.368,1.054s-.066-.071-.193-.215a5.4,5.4,0,0,1-.507-.686,5.358,5.358,0,0,1-.816-3.245,5.344,5.344,0,0,1,1.18-2.9c-.126-.365-.255-.725-.381-1.1-.137-.417-.278-.838-.419-1.262C3606.062-5333.312,3605.976-5333.211,3605.89-5333.111Zm3.628,2.086a4.3,4.3,0,0,0-1.58,1.087c.6,1.624,1.207,3.177,1.79,4.633.44,1.1.859,2.153,1.246,3.161a7.544,7.544,0,0,0,3.091-1.534,4.033,4.033,0,0,0,1.475-3.154,4.61,4.61,0,0,0-1.25-2.938,4.487,4.487,0,0,0-3.32-1.524A3.983,3.983,0,0,0,3609.518-5331.025Zm-4.047-6.7a32.236,32.236,0,0,0,1.266-3.2,7.621,7.621,0,0,0,.281-3.6c-.082-.506-.3-1.283-.909-1.366a.667.667,0,0,0-.087-.006C3604.851-5345.9,3604.284-5342.646,3605.472-5337.725Zm1.632,21.856s0,0,0,0Zm-54.149-4.006c-.988-.287-1.48-1.586-1.1-2.9a2.791,2.791,0,0,1,1.332-1.732l-7.385-6.2,0,.006-2.247-1.886,5.268-10.285,2.158,1.812,0,.007,8.594,7.211,0,.005a2.465,2.465,0,0,1,.655,2.671c-.381,1.317-1.488,2.156-2.478,1.87s-1.482-1.585-1.1-2.9a2.77,2.77,0,0,1,1.344-1.741l-7.444-6.248-4.306,8.613,8.428,7.072a1.542,1.542,0,0,1,.357.3l.032.027-.005.007a2.645,2.645,0,0,1,.388,2.424,2.432,2.432,0,0,1-2.084,1.926A1.421,1.421,0,0,1,3552.955-5319.875Z" transform="translate(-3455.04 5354.21)" fill="#fff" stroke="rgba(0,0,0,0)" stroke-miterlimit="10" stroke-width="1"/></g></svg>