<svg xmlns="http://www.w3.org/2000/svg" width="281.693" height="31.777" viewBox="0 0 281.693 31.777"><path d="M-983.45,541.488h4.039c4.529,0,4.529,7.8,9.058,7.8s4.53-7.354,9.06-7.354,4.53,6.685,9.06,6.685,4.53-8.237,9.059-8.237,4.531,9.828,9.061,9.828,4.53-15.9,9.06-15.9,4.53,17.929,9.06,17.929,4.531-18.811,9.061-18.811,4.53,20.534,9.06,20.534,4.531-15.092,9.062-15.092,4.53,11.069,9.06,11.069,4.531-9.651,9.062-9.651,4.53,8.029,9.06,8.029,4.531-8.232,9.061-8.232,4.531,8.131,9.062,8.131,4.531-7.624,9.061-7.624,4.531,7.32,9.061,7.32,4.531-10.973,9.063-10.973,4.531,16.719,9.062,16.719,4.531-20.367,9.062-20.367,4.531,16.415,9.062,16.415,4.531-19.454,9.062-19.454,4.531,28.777,9.062,28.777,4.532-22.089,9.063-22.089,4.531,10.878,9.062,10.878,4.531-7.076,9.062-7.076,4.53,7.518,9.061,7.518,4.531-9.23,9.061-9.23,4.531,8.443,9.062,8.443,4.532-9.23,9.064-9.23h2.817" transform="translate(984.95 -528.745)" fill="none" stroke="#f11775" stroke-linecap="round" stroke-miterlimit="10" stroke-width="3"/></svg>